<?xml version="1.0" encoding="UTF-8"?>
<svg xmlns="http://www.w3.org/2000/svg" xmlns:xlink="http://www.w3.org/1999/xlink" width="32px" height="32px" viewBox="0 0 32 32" version="1.1">
<g id="surface1">
<path style=" stroke:none;fill-rule:nonzero;fill:rgb(100%,100%,100%);fill-opacity:1;" d="M 0 16 C 0 16.640625 0.222656 17.183594 0.671875 17.632812 C 1.121094 18.078125 1.652344 18.304688 2.273438 18.304688 C 2.890625 18.304688 3.433594 18.078125 3.902344 17.632812 C 4.375 17.183594 4.597656 16.640625 4.574219 16 C 4.574219 14.742188 5.023438 13.664062 5.921875 12.769531 C 6.816406 11.871094 7.894531 11.425781 9.152344 11.425781 C 10.410156 11.425781 11.488281 11.871094 12.382812 12.769531 C 13.28125 13.664062 13.726562 14.742188 13.726562 16 C 13.726562 17.664062 14.132812 19.199219 14.945312 20.609375 C 15.753906 22.015625 16.863281 23.125 18.273438 23.9375 C 19.679688 24.746094 21.207031 25.152344 22.847656 25.152344 C 24.492188 25.152344 26.027344 24.746094 27.457031 23.9375 C 28.886719 23.125 29.996094 22.015625 30.785156 20.609375 C 31.574219 19.199219 31.980469 17.664062 32 16 C 32 15.382812 31.777344 14.847656 31.328125 14.398438 C 30.878906 13.953125 30.347656 13.726562 29.726562 13.726562 C 29.109375 13.726562 28.566406 13.953125 28.097656 14.398438 C 27.625 14.847656 27.402344 15.382812 27.425781 16 C 27.425781 17.257812 26.976562 18.335938 26.078125 19.230469 C 25.183594 20.128906 24.105469 20.574219 22.847656 20.574219 C 21.589844 20.574219 20.511719 20.136719 19.617188 19.265625 C 18.71875 18.390625 18.273438 17.300781 18.273438 16 C 18.273438 14.355469 17.867188 12.832031 17.054688 11.425781 C 16.246094 10.015625 15.136719 8.90625 13.726562 8.097656 C 12.320312 7.285156 10.792969 6.878906 9.152344 6.878906 C 7.507812 6.878906 5.972656 7.285156 4.542969 8.097656 C 3.113281 8.90625 2.003906 10.015625 1.214844 11.425781 C 0.425781 12.832031 0.0195312 14.355469 0 16 Z M 0 16 "/>
</g>
</svg>
